<svg width="32" height="32" viewBox="0 0 32 32" fill="none" xmlns="http://www.w3.org/2000/svg">
<g id="arrow">
<path id="Vector" d="M4.60281 15.2698C4.35285 15.5198 4.21243 15.8589 4.21243 16.2124C4.21243 16.566 4.35285 16.9051 4.60281 17.1551L12.1455 24.6978C12.2685 24.8251 12.4156 24.9267 12.5783 24.9966C12.7409 25.0664 12.9159 25.1032 13.0929 25.1048C13.27 25.1063 13.4456 25.0726 13.6094 25.0055C13.7733 24.9385 13.9222 24.8395 14.0473 24.7143C14.1725 24.5891 14.2715 24.4402 14.3386 24.2764C14.4056 24.1125 14.4394 23.9369 14.4378 23.7599C14.4363 23.5829 14.3995 23.4079 14.3296 23.2452C14.2597 23.0826 14.1582 22.9354 14.0308 22.8124L8.76415 17.5458L26.4215 17.5458C26.7751 17.5458 27.1142 17.4053 27.3643 17.1552C27.6143 16.9052 27.7548 16.566 27.7548 16.2124C27.7548 15.8588 27.6143 15.5197 27.3643 15.2696C27.1142 15.0196 26.7751 14.8791 26.4215 14.8791L8.76415 14.8791L14.0308 9.61243C14.2737 9.36096 14.4081 9.02416 14.405 8.67456C14.402 8.32496 14.2618 7.99055 14.0146 7.74334C13.7674 7.49613 13.4329 7.3559 13.0833 7.35286C12.7338 7.34982 12.397 7.48422 12.1455 7.72709L4.60281 15.2698Z" fill="white"/>
</g>
</svg>
