<svg width="30" height="22" viewBox="0 0 30 22" fill="none" xmlns="http://www.w3.org/2000/svg">
<g id="Group">
<path id="Vector" d="M19 11C19 12.0609 18.5786 13.0783 17.8284 13.8284C17.0783 14.5786 16.0609 15 15 15C13.9391 15 12.9217 14.5786 12.1716 13.8284C11.4214 13.0783 11 12.0609 11 11C11 9.93913 11.4214 8.92172 12.1716 8.17157C12.9217 7.42143 13.9391 7 15 7C16.0609 7 17.0783 7.42143 17.8284 8.17157C18.5786 8.92172 19 9.93913 19 11Z" stroke="white" stroke-width="1.5" stroke-linecap="round" stroke-linejoin="round"/>
<path id="Vector_2" d="M1.66663 11C3.79996 5.53734 8.78129 1.66667 15 1.66667C21.2186 1.66667 26.2 5.53734 28.3333 11C26.2 16.4627 21.2186 20.3333 15 20.3333C8.78129 20.3333 3.79996 16.4627 1.66663 11Z" stroke="white" stroke-width="1.5" stroke-linecap="round" stroke-linejoin="round"/>
</g>
</svg>
