<svg width="32" height="32" viewBox="0 0 32 32" fill="none" xmlns="http://www.w3.org/2000/svg">
<g id="like" clip-path="url(#clip0_502_64)">
<path id="Vector" d="M19.017 31.992C9.92854 31.992 9.85857 31.6151 8.73308 30.7675C8.13608 30.3185 7.00961 30.0075 2.89511 29.7395C2.59661 29.72 2.31261 29.6055 2.12214 29.3745C2.03464 29.268 -0.0213623 26.2695 -0.0213623 21.467C-0.0213623 16.7345 1.45014 14.5775 1.51311 14.4775C1.60288 14.3337 1.72778 14.2151 1.87604 14.1328C2.02431 14.0506 2.19107 14.0075 2.36061 14.0075C5.73911 14.0075 10.4226 9.695 13.5711 2.167C14.1156 0.864999 14.2281 0.00849915 16.2281 0.00849915C17.3656 0.00849915 18.6406 0.822999 19.2701 1.86803C20.5616 4.00303 19.9056 8.58856 19.2991 11.0391C21.3616 11.0226 25.0951 10.9945 26.8716 10.9945C29.3426 10.9945 30.978 12.468 31.0275 14.622C31.0441 15.333 30.9505 16.241 30.745 16.711C31.289 17.2535 31.9906 18.0715 32.021 19.125C32.059 20.485 31.1685 21.5205 30.6 22.1145C30.7305 22.51 30.9915 23.0345 30.966 23.6615C30.9035 25.2035 29.713 26.197 28.9715 26.7155C29.033 27.1375 29.081 27.9335 28.9455 28.549C28.4105 31.0055 24.808 31.992 19.017 31.992L19.017 31.992ZM3.42558 27.7116C7.00957 28.0081 8.92551 28.4096 9.93601 29.1701C10.718 29.7591 10.5975 29.9926 19.017 29.9926C21.585 29.9926 26.6075 29.8856 26.9925 28.1226C27.1455 27.4176 26.402 26.7246 26.3995 26.7191C26.1965 26.2181 26.4225 25.6301 26.9175 25.4136C26.9255 25.4096 28.922 24.6946 28.9675 23.5786C28.9975 22.8651 28.5075 22.4366 28.4965 22.4186C28.205 21.9666 28.3115 21.3466 28.7535 21.0386C28.7585 21.0346 30.052 20.2506 30.0205 19.1816C29.996 18.3326 28.8775 17.7351 28.8435 17.7151C28.5935 17.5721 28.4115 17.3246 28.3545 17.0416C28.2985 16.7591 28.3615 16.4626 28.537 16.2331C28.537 16.2331 29.0455 15.4251 29.027 14.6671C28.9905 13.0446 27.2455 12.9936 26.871 12.9936C24.3485 12.9936 17.8701 13.0191 17.8701 13.0191C17.5206 13.0206 17.2181 12.8556 17.0301 12.5761C16.8426 12.2966 16.8286 11.9496 16.9386 11.6316C17.9155 8.81809 18.4611 4.40409 17.555 2.89609C17.288 2.45159 17.227 2.00759 16.227 2.00759C16.0885 2.00759 15.7586 2.11709 15.4146 2.93709C12.0731 10.9321 7.08208 15.5566 2.99408 15.9736C2.64158 16.7776 1.97858 18.4436 1.97858 21.4666C1.97858 24.5521 2.95604 26.9391 3.42558 27.7116Z" fill="white"/>
</g>
<defs>
<clipPath id="clip0_502_64">
<rect width="32" height="32" fill="white"/>
</clipPath>
</defs>
</svg>
