<svg width="32" height="32" viewBox="0 0 32 32" fill="none" xmlns="http://www.w3.org/2000/svg">
<g clip-path="url(#clip0_523_62)">
<g clip-path="url(#clip1_523_62)">
<path d="M19.017 31.992C9.92848 31.992 9.85851 31.6151 8.73301 30.7675C8.13601 30.3185 7.00954 30.0075 2.89504 29.7395C2.59654 29.72 2.31254 29.6055 2.12208 29.3745C2.03458 29.268 -0.0214233 26.2695 -0.0214233 21.467C-0.0214233 16.7345 1.45008 14.5775 1.51305 14.4775C1.60281 14.3337 1.72771 14.2151 1.87598 14.1328C2.02425 14.0506 2.191 14.0075 2.36055 14.0075C5.73904 14.0075 10.4225 9.695 13.571 2.167C14.1155 0.864999 14.228 0.00849915 16.228 0.00849915C17.3655 0.00849915 18.6405 0.822999 19.27 1.86803C20.5615 4.00303 19.9055 8.58856 19.299 11.0391C21.3615 11.0226 25.095 10.9945 26.8715 10.9945C29.3425 10.9945 30.978 12.468 31.0275 14.622C31.044 15.333 30.9505 16.241 30.745 16.711C31.289 17.2535 31.9905 18.0715 32.021 19.125C32.059 20.485 31.1685 21.5205 30.6 22.1145C30.7304 22.51 30.9914 23.0345 30.9659 23.6615C30.9034 25.2035 29.7129 26.197 28.9714 26.7155C29.0329 27.1375 29.0809 27.9335 28.9454 28.549C28.4104 31.0055 24.808 31.992 19.017 31.992Z" fill="white"/>
</g>
</g>
<defs>
<clipPath id="clip0_523_62">
<rect width="32" height="32" fill="white"/>
</clipPath>
<clipPath id="clip1_523_62">
<rect width="32" height="32" fill="white"/>
</clipPath>
</defs>
</svg>
